<?xml version="1.0" encoding="UTF-8" standalone="no"?>
<!DOCTYPE svg PUBLIC "-//W3C//DTD SVG 1.1//EN"
 "http://www.w3.org/Graphics/SVG/1.1/DTD/svg11.dtd">
<!-- Generated by graphviz version 2.40.1 (20161225.0304)
 -->
<!-- Title: compactRelationshipsDiagram Pages: 1 -->
<svg width="470pt" height="342pt"
 viewBox="0.00 0.00 470.00 342.20" xmlns="http://www.w3.org/2000/svg" xmlns:xlink="http://www.w3.org/1999/xlink">
<g id="graph0" class="graph" transform="scale(1 1) rotate(0) translate(4 338.2)">
<title>compactRelationshipsDiagram</title>
<polygon fill="#ffffff" stroke="transparent" points="-4,4 -4,-338.2 466,-338.2 466,4 -4,4"/>
<text text-anchor="middle" x="72.4936" y="-7.3" font-family="Helvetica,sans-Serif" font-size="11.00" fill="#000000">Generated by SchemaSpy</text>
<!-- ContributionTable -->
<g id="node1" class="node">
<title>ContributionTable</title>
<g id="a_node1"><a xlink:href="../../tables/ContributionTable.html" xlink:title="ContributionTable" target="_top">
<polygon fill="#ffffff" stroke="transparent" points="9,-142.2 9,-225.2 152,-225.2 152,-142.2 9,-142.2"/>
<polygon fill="#f5f5f5" stroke="transparent" points="9.5,-201.7 9.5,-224.7 152.5,-224.7 152.5,-201.7 9.5,-201.7"/>
<polygon fill="none" stroke="#000000" points="9.5,-201.7 9.5,-224.7 152.5,-224.7 152.5,-201.7 9.5,-201.7"/>
<text text-anchor="start" x="14.5" y="-210.8" font-family="Helvetica,sans-Serif" font-weight="bold" font-size="11.00" fill="#000000">ContributionTable</text>
<text text-anchor="start" x="117.5437" y="-209.8" font-family="Helvetica,sans-Serif" font-size="11.00" fill="#000000">[table]</text>
<polygon fill="none" stroke="#000000" points="9.5,-179.7 9.5,-201.7 152.5,-201.7 152.5,-179.7 9.5,-179.7"/>
<image xlink:href="../../images/primaryKeys.png" width="11px" height="12px" preserveAspectRatio="xMinYMin meet" x="14.5" y="-196.7"/>
<text text-anchor="start" x="29.5" y="-186.8" font-family="Helvetica,sans-Serif" font-size="11.00" fill="#000000">cldf_id</text>
<polygon fill="none" stroke="#000000" points="9.5,-160.7 9.5,-179.7 152.5,-179.7 152.5,-160.7 9.5,-160.7"/>
<text text-anchor="start" x="12.5" y="-166.8" font-family="Helvetica,sans-Serif" font-size="11.00" fill="#000000">...</text>
<polygon fill="#ffffff" stroke="transparent" points="9.5,-141.7 9.5,-160.7 51.5,-160.7 51.5,-141.7 9.5,-141.7"/>
<polygon fill="none" stroke="#000000" points="9.5,-141.7 9.5,-160.7 51.5,-160.7 51.5,-141.7 9.5,-141.7"/>
<text text-anchor="start" x="12.5" y="-147.8" font-family="Helvetica,sans-Serif" font-size="11.00" fill="#000000"> &#160;</text>
<polygon fill="#ffffff" stroke="transparent" points="51.5,-141.7 51.5,-160.7 116.5,-160.7 116.5,-141.7 51.5,-141.7"/>
<polygon fill="none" stroke="#000000" points="51.5,-141.7 51.5,-160.7 116.5,-160.7 116.5,-141.7 51.5,-141.7"/>
<text text-anchor="start" x="68.8807" y="-147.8" font-family="Helvetica,sans-Serif" font-size="11.00" fill="#000000">990 rows</text>
<polygon fill="#ffffff" stroke="transparent" points="116.5,-141.7 116.5,-160.7 152.5,-160.7 152.5,-141.7 116.5,-141.7"/>
<polygon fill="none" stroke="#000000" points="116.5,-141.7 116.5,-160.7 152.5,-160.7 152.5,-141.7 116.5,-141.7"/>
<text text-anchor="start" x="133.9053" y="-147.8" font-family="Helvetica,sans-Serif" font-size="11.00" fill="#000000">2 &gt;</text>
</a>
</g>
</g>
<!-- ContributionTable_LanguageTable -->
<g id="node2" class="node">
<title>ContributionTable_LanguageTable</title>
<g id="a_node2"><a xlink:href="../../tables/ContributionTable_LanguageTable.html" xlink:title="ContributionTable_LanguageTable" target="_top">
<polygon fill="#ffffff" stroke="transparent" points="202,-225.2 202,-330.2 454,-330.2 454,-225.2 202,-225.2"/>
<polygon fill="#f5f5f5" stroke="transparent" points="202,-306.7 202,-329.7 454,-329.7 454,-306.7 202,-306.7"/>
<polygon fill="none" stroke="#000000" points="202,-306.7 202,-329.7 454,-329.7 454,-306.7 202,-306.7"/>
<text text-anchor="start" x="207" y="-315.8" font-family="Helvetica,sans-Serif" font-weight="bold" font-size="11.00" fill="#000000">ContributionTable_LanguageTable</text>
<text text-anchor="start" x="419.0437" y="-314.8" font-family="Helvetica,sans-Serif" font-size="11.00" fill="#000000">[table]</text>
<polygon fill="none" stroke="#000000" points="202,-284.7 202,-306.7 454,-306.7 454,-284.7 202,-284.7"/>
<image xlink:href="../../images/foreignKeys.png" width="11px" height="12px" preserveAspectRatio="xMinYMin meet" x="207" y="-301.7"/>
<text text-anchor="start" x="222" y="-291.8" font-family="Helvetica,sans-Serif" font-size="11.00" fill="#000000">ContributionTable_cldf_id</text>
<polygon fill="none" stroke="#000000" points="202,-262.7 202,-284.7 454,-284.7 454,-262.7 202,-262.7"/>
<image xlink:href="../../images/foreignKeys.png" width="11px" height="12px" preserveAspectRatio="xMinYMin meet" x="207" y="-279.7"/>
<text text-anchor="start" x="222" y="-269.8" font-family="Helvetica,sans-Serif" font-size="11.00" fill="#000000">LanguageTable_cldf_id</text>
<polygon fill="none" stroke="#000000" points="202,-243.7 202,-262.7 454,-262.7 454,-243.7 202,-243.7"/>
<text text-anchor="start" x="205" y="-249.8" font-family="Helvetica,sans-Serif" font-size="11.00" fill="#000000">...</text>
<polygon fill="#ffffff" stroke="transparent" points="202,-224.7 202,-243.7 303,-243.7 303,-224.7 202,-224.7"/>
<polygon fill="none" stroke="#000000" points="202,-224.7 202,-243.7 303,-243.7 303,-224.7 202,-224.7"/>
<text text-anchor="start" x="205" y="-230.8" font-family="Helvetica,sans-Serif" font-size="11.00" fill="#000000">&lt; 2</text>
<polygon fill="#ffffff" stroke="transparent" points="303,-224.7 303,-243.7 402,-243.7 402,-224.7 303,-224.7"/>
<polygon fill="none" stroke="#000000" points="303,-224.7 303,-243.7 402,-243.7 402,-224.7 303,-224.7"/>
<text text-anchor="start" x="345.2089" y="-230.8" font-family="Helvetica,sans-Serif" font-size="11.00" fill="#000000">2,781 rows</text>
<polygon fill="#ffffff" stroke="transparent" points="402,-224.7 402,-243.7 454,-243.7 454,-224.7 402,-224.7"/>
<polygon fill="none" stroke="#000000" points="402,-224.7 402,-243.7 454,-243.7 454,-224.7 402,-224.7"/>
<text text-anchor="start" x="444.8862" y="-230.8" font-family="Helvetica,sans-Serif" font-size="11.00" fill="#000000"> &#160;</text>
</a>
</g>
</g>
<!-- ContributionTable_LanguageTable&#45;&gt;ContributionTable -->
<g id="edge1" class="edge">
<title>ContributionTable_LanguageTable:w&#45;&gt;ContributionTable:e</title>
<path fill="none" stroke="#000000" d="M187.8605,-291.7121C161.5442,-272.5326 198.0464,-190.7 152.5,-190.7"/>
<polygon fill="#000000" stroke="#000000" points="194.3004,-293.5284 201.0228,-299.1648 198.1502,-294.6142 202,-295.7 202,-295.7 202,-295.7 198.1502,-294.6142 202.9772,-292.2352 194.3004,-293.5284 194.3004,-293.5284"/>
<ellipse fill="none" stroke="#000000" cx="191.2205" cy="-292.6597" rx="3.2" ry="3.2"/>
</g>
<!-- LanguageTable -->
<g id="node4" class="node">
<title>LanguageTable</title>
<g id="a_node4"><a xlink:href="../../tables/LanguageTable.html" xlink:title="LanguageTable" target="_top">
<polygon fill="#ffffff" stroke="transparent" points="8,-246.2 8,-329.2 153,-329.2 153,-246.2 8,-246.2"/>
<polygon fill="#f5f5f5" stroke="transparent" points="8.5,-305.7 8.5,-328.7 153.5,-328.7 153.5,-305.7 8.5,-305.7"/>
<polygon fill="none" stroke="#000000" points="8.5,-305.7 8.5,-328.7 153.5,-328.7 153.5,-305.7 8.5,-305.7"/>
<text text-anchor="start" x="13.5" y="-314.8" font-family="Helvetica,sans-Serif" font-weight="bold" font-size="11.00" fill="#000000">LanguageTable</text>
<text text-anchor="start" x="118.5437" y="-313.8" font-family="Helvetica,sans-Serif" font-size="11.00" fill="#000000">[table]</text>
<polygon fill="none" stroke="#000000" points="8.5,-283.7 8.5,-305.7 153.5,-305.7 153.5,-283.7 8.5,-283.7"/>
<image xlink:href="../../images/primaryKeys.png" width="11px" height="12px" preserveAspectRatio="xMinYMin meet" x="13.5" y="-300.7"/>
<text text-anchor="start" x="28.5" y="-290.8" font-family="Helvetica,sans-Serif" font-size="11.00" fill="#000000">cldf_id</text>
<polygon fill="none" stroke="#000000" points="8.5,-264.7 8.5,-283.7 153.5,-283.7 153.5,-264.7 8.5,-264.7"/>
<text text-anchor="start" x="11.5" y="-270.8" font-family="Helvetica,sans-Serif" font-size="11.00" fill="#000000">...</text>
<polygon fill="#ffffff" stroke="transparent" points="8.5,-245.7 8.5,-264.7 46.5,-264.7 46.5,-245.7 8.5,-245.7"/>
<polygon fill="none" stroke="#000000" points="8.5,-245.7 8.5,-264.7 46.5,-264.7 46.5,-245.7 8.5,-245.7"/>
<text text-anchor="start" x="11.5" y="-251.8" font-family="Helvetica,sans-Serif" font-size="11.00" fill="#000000"> &#160;</text>
<polygon fill="#ffffff" stroke="transparent" points="46.5,-245.7 46.5,-264.7 118.5,-264.7 118.5,-245.7 46.5,-245.7"/>
<polygon fill="none" stroke="#000000" points="46.5,-245.7 46.5,-264.7 118.5,-264.7 118.5,-245.7 46.5,-245.7"/>
<text text-anchor="start" x="61.7089" y="-251.8" font-family="Helvetica,sans-Serif" font-size="11.00" fill="#000000">1,714 rows</text>
<polygon fill="#ffffff" stroke="transparent" points="118.5,-245.7 118.5,-264.7 153.5,-264.7 153.5,-245.7 118.5,-245.7"/>
<polygon fill="none" stroke="#000000" points="118.5,-245.7 118.5,-264.7 153.5,-264.7 153.5,-245.7 118.5,-245.7"/>
<text text-anchor="start" x="134.9053" y="-251.8" font-family="Helvetica,sans-Serif" font-size="11.00" fill="#000000">1 &gt;</text>
</a>
</g>
</g>
<!-- ContributionTable_LanguageTable&#45;&gt;LanguageTable -->
<g id="edge2" class="edge">
<title>ContributionTable_LanguageTable:w&#45;&gt;LanguageTable:e</title>
<path fill="none" stroke="#000000" d="M187.8155,-276.9813C176.377,-282.8875 171.1171,-294.7 153.5,-294.7"/>
<polygon fill="#000000" stroke="#000000" points="194.2058,-275.503 202.8114,-277.2074 198.1029,-274.6015 202,-273.7 202,-273.7 202,-273.7 198.1029,-274.6015 201.1886,-270.1926 194.2058,-275.503 194.2058,-275.503"/>
<ellipse fill="none" stroke="#000000" cx="191.0881" cy="-276.2243" rx="3.2" ry="3.2"/>
</g>
<!-- ContributionTable_MediaTable -->
<g id="node3" class="node">
<title>ContributionTable_MediaTable</title>
<g id="a_node3"><a xlink:href="../../tables/ContributionTable_MediaTable.html" xlink:title="ContributionTable_MediaTable" target="_top">
<polygon fill="#ffffff" stroke="transparent" points="214.5,-79.2 214.5,-184.2 441.5,-184.2 441.5,-79.2 214.5,-79.2"/>
<polygon fill="#f5f5f5" stroke="transparent" points="215,-160.7 215,-183.7 442,-183.7 442,-160.7 215,-160.7"/>
<polygon fill="none" stroke="#000000" points="215,-160.7 215,-183.7 442,-183.7 442,-160.7 215,-160.7"/>
<text text-anchor="start" x="220" y="-169.8" font-family="Helvetica,sans-Serif" font-weight="bold" font-size="11.00" fill="#000000">ContributionTable_MediaTable</text>
<text text-anchor="start" x="407.0437" y="-168.8" font-family="Helvetica,sans-Serif" font-size="11.00" fill="#000000">[table]</text>
<polygon fill="none" stroke="#000000" points="215,-138.7 215,-160.7 442,-160.7 442,-138.7 215,-138.7"/>
<image xlink:href="../../images/foreignKeys.png" width="11px" height="12px" preserveAspectRatio="xMinYMin meet" x="220" y="-155.7"/>
<text text-anchor="start" x="235" y="-145.8" font-family="Helvetica,sans-Serif" font-size="11.00" fill="#000000">ContributionTable_cldf_id</text>
<polygon fill="none" stroke="#000000" points="215,-116.7 215,-138.7 442,-138.7 442,-116.7 215,-116.7"/>
<image xlink:href="../../images/foreignKeys.png" width="11px" height="12px" preserveAspectRatio="xMinYMin meet" x="220" y="-133.7"/>
<text text-anchor="start" x="235" y="-123.8" font-family="Helvetica,sans-Serif" font-size="11.00" fill="#000000">MediaTable_cldf_id</text>
<polygon fill="none" stroke="#000000" points="215,-97.7 215,-116.7 442,-116.7 442,-97.7 215,-97.7"/>
<text text-anchor="start" x="218" y="-103.8" font-family="Helvetica,sans-Serif" font-size="11.00" fill="#000000">...</text>
<polygon fill="#ffffff" stroke="transparent" points="215,-78.7 215,-97.7 303,-97.7 303,-78.7 215,-78.7"/>
<polygon fill="none" stroke="#000000" points="215,-78.7 215,-97.7 303,-97.7 303,-78.7 215,-78.7"/>
<text text-anchor="start" x="218" y="-84.8" font-family="Helvetica,sans-Serif" font-size="11.00" fill="#000000">&lt; 2</text>
<polygon fill="#ffffff" stroke="transparent" points="303,-78.7 303,-97.7 396,-97.7 396,-78.7 303,-78.7"/>
<polygon fill="none" stroke="#000000" points="303,-78.7 303,-97.7 396,-97.7 396,-78.7 303,-78.7"/>
<text text-anchor="start" x="339.2089" y="-84.8" font-family="Helvetica,sans-Serif" font-size="11.00" fill="#000000">2,249 rows</text>
<polygon fill="#ffffff" stroke="transparent" points="396,-78.7 396,-97.7 442,-97.7 442,-78.7 396,-78.7"/>
<polygon fill="none" stroke="#000000" points="396,-78.7 396,-97.7 442,-97.7 442,-78.7 396,-78.7"/>
<text text-anchor="start" x="432.8862" y="-84.8" font-family="Helvetica,sans-Serif" font-size="11.00" fill="#000000"> &#160;</text>
</a>
</g>
</g>
<!-- ContributionTable_MediaTable&#45;&gt;ContributionTable -->
<g id="edge3" class="edge">
<title>ContributionTable_MediaTable:w&#45;&gt;ContributionTable:e</title>
<path fill="none" stroke="#000000" d="M200.7865,-152.9172C182.0361,-162.5826 180.0114,-190.7 152.5,-190.7"/>
<polygon fill="#000000" stroke="#000000" points="207.1974,-151.4661 215.7948,-153.2112 211.0987,-150.5831 215,-149.7 215,-149.7 215,-149.7 211.0987,-150.5831 214.2052,-146.1888 207.1974,-151.4661 207.1974,-151.4661"/>
<ellipse fill="none" stroke="#000000" cx="204.0763" cy="-152.1726" rx="3.2" ry="3.2"/>
</g>
<!-- MediaTable -->
<g id="node5" class="node">
<title>MediaTable</title>
<g id="a_node5"><a xlink:href="../../tables/MediaTable.html" xlink:title="MediaTable" target="_top">
<polygon fill="#ffffff" stroke="transparent" points="12,-38.2 12,-121.2 149,-121.2 149,-38.2 12,-38.2"/>
<polygon fill="#f5f5f5" stroke="transparent" points="12.5,-97.7 12.5,-120.7 149.5,-120.7 149.5,-97.7 12.5,-97.7"/>
<polygon fill="none" stroke="#000000" points="12.5,-97.7 12.5,-120.7 149.5,-120.7 149.5,-97.7 12.5,-97.7"/>
<text text-anchor="start" x="17.5" y="-106.8" font-family="Helvetica,sans-Serif" font-weight="bold" font-size="11.00" fill="#000000">MediaTable</text>
<text text-anchor="start" x="114.5437" y="-105.8" font-family="Helvetica,sans-Serif" font-size="11.00" fill="#000000">[table]</text>
<polygon fill="none" stroke="#000000" points="12.5,-75.7 12.5,-97.7 149.5,-97.7 149.5,-75.7 12.5,-75.7"/>
<image xlink:href="../../images/primaryKeys.png" width="11px" height="12px" preserveAspectRatio="xMinYMin meet" x="17.5" y="-92.7"/>
<text text-anchor="start" x="32.5" y="-82.8" font-family="Helvetica,sans-Serif" font-size="11.00" fill="#000000">cldf_id</text>
<polygon fill="none" stroke="#000000" points="12.5,-56.7 12.5,-75.7 149.5,-75.7 149.5,-56.7 12.5,-56.7"/>
<text text-anchor="start" x="15.5" y="-62.8" font-family="Helvetica,sans-Serif" font-size="11.00" fill="#000000">...</text>
<polygon fill="#ffffff" stroke="transparent" points="12.5,-37.7 12.5,-56.7 46.5,-56.7 46.5,-37.7 12.5,-37.7"/>
<polygon fill="none" stroke="#000000" points="12.5,-37.7 12.5,-56.7 46.5,-56.7 46.5,-37.7 12.5,-37.7"/>
<text text-anchor="start" x="15.5" y="-43.8" font-family="Helvetica,sans-Serif" font-size="11.00" fill="#000000"> &#160;</text>
<polygon fill="#ffffff" stroke="transparent" points="46.5,-37.7 46.5,-56.7 116.5,-56.7 116.5,-37.7 46.5,-37.7"/>
<polygon fill="none" stroke="#000000" points="46.5,-37.7 46.5,-56.7 116.5,-56.7 116.5,-37.7 46.5,-37.7"/>
<text text-anchor="start" x="59.7089" y="-43.8" font-family="Helvetica,sans-Serif" font-size="11.00" fill="#000000">2,160 rows</text>
<polygon fill="#ffffff" stroke="transparent" points="116.5,-37.7 116.5,-56.7 149.5,-56.7 149.5,-37.7 116.5,-37.7"/>
<polygon fill="none" stroke="#000000" points="116.5,-37.7 116.5,-56.7 149.5,-56.7 149.5,-37.7 116.5,-37.7"/>
<text text-anchor="start" x="130.9053" y="-43.8" font-family="Helvetica,sans-Serif" font-size="11.00" fill="#000000">1 &gt;</text>
</a>
</g>
</g>
<!-- ContributionTable_MediaTable&#45;&gt;MediaTable -->
<g id="edge4" class="edge">
<title>ContributionTable_MediaTable:w&#45;&gt;MediaTable:e</title>
<path fill="none" stroke="#000000" d="M200.7955,-124.7514C180.6919,-115.3505 178.2094,-86.7 149.5,-86.7"/>
<polygon fill="#000000" stroke="#000000" points="207.167,-126.0739 214.2683,-131.2249 211.0835,-126.887 215,-127.7 215,-127.7 215,-127.7 211.0835,-126.887 215.7317,-124.1751 207.167,-126.0739 207.167,-126.0739"/>
<ellipse fill="none" stroke="#000000" cx="204.0338" cy="-125.4235" rx="3.2" ry="3.2"/>
</g>
</g>
</svg>

